<svg xmlns="http://www.w3.org/2000/svg" viewBox="0 0 16 16" id="Cd-Playing--Streamline-Ultimate" height="16" width="16">
  <desc>
    Cd Playing Streamline Icon: https://streamlinehq.com
  </desc>
  <g id="Cd-Playing--Streamline-Ultimate.svg">
    <path d="M8 0a8 8 0 1 0 8 8A8 8 0 0 0 8 0ZM1.5 8a0.17333333333333334 0.17333333333333334 0 0 1 -0.16666666666666666 -0.17333333333333334 6.666666666666666 6.666666666666666 0 0 1 1.8333333333333333 -4.413333333333333 0.16666666666666666 0.16666666666666666 0 0 1 0.12 -0.07999999999999999 0.15999999999999998 0.15999999999999998 0 0 1 0.12 0.04666666666666667l2.7133333333333334 2.74a0.16666666666666666 0.16666666666666666 0 0 0 0.22666666666666668 0 2.5 2.5 0 0 1 4.1466666666666665 1.72 0.16666666666666666 0.16666666666666666 0 0 0 0.17333333333333334 0.15999999999999998h3.84a0.17333333333333334 0.17333333333333334 0 0 1 0.16666666666666666 0.17333333333333334 6.666666666666666 6.666666666666666 0 0 1 -1.8333333333333333 4.413333333333333 0.16666666666666666 0.16666666666666666 0 0 1 -0.12 0.05333333333333333 0.15999999999999998 0.15999999999999998 0 0 1 -0.12 -0.04666666666666667l-2.7133333333333334 -2.7133333333333334a0.16666666666666666 0.16666666666666666 0 0 0 -0.22666666666666668 0 2.466666666666667 2.466666666666667 0 0 1 -1.6533333333333333 0.6266666666666666 2.5 2.5 0 0 1 -2.493333333333333 -2.3466666666666667A0.16666666666666666 0.16666666666666666 0 0 0 5.333333333333333 8Z" fill="#000000" stroke-width="0.6667"></path>
    <path d="M6.5 8a1.5 1.5 0 1 0 3 0 1.5 1.5 0 1 0 -3 0" fill="#000000" stroke-width="0.6667"></path>
  </g>
</svg>