<svg xmlns="http://www.w3.org/2000/svg" fill="none" viewBox="-0.335 -0.335 16 16" id="Delete-2--Streamline-Ultimate" height="16" width="16">
  <desc>
    Delete 2 Streamline Icon: https://streamlinehq.com
  </desc>
  <path fill="#ff808c" d="M7.665127749999999 14.398446999999997c3.7186108749999995 0 6.733447 -3.0148361249999995 6.733447 -6.733447 0 -3.7186555874999994 -3.0148361249999995 -6.7335044874999985 -6.733447 -6.7335044874999985C3.9464593875 0.9314955124999998 0.9316168749999998 3.9463444125 0.9316168749999998 7.664999999999999c0 3.7186108749999995 3.0148425124999996 6.733447 6.7335108749999995 6.733447Z" stroke-width="0.67"></path>
  <path fill="#ffbfc5" d="M2.9035594874999995 12.426497999999999C1.6407443499999999 11.163625374999999 0.9313038874999999 9.450881124999999 0.9313038874999999 7.664999999999999c0 -1.7858747374999997 0.7094404624999999 -3.4986189874999996 1.9722556 -4.7614405125C4.1663810125 1.6407443499999999 5.8791252625 0.9313038874999999 7.664999999999999 0.9313038874999999c1.7858811249999997 0 3.498625374999999 0.7094404624999999 4.761498 1.9722556L2.9035594874999995 12.426497999999999Z" stroke-width="0.67"></path>
  <path stroke="#191919" stroke-linecap="round" stroke-linejoin="round" d="M7.665127749999999 14.398446999999997c3.7186108749999995 0 6.733447 -3.0148361249999995 6.733447 -6.733447 0 -3.7186555874999994 -3.0148361249999995 -6.7335044874999985 -6.733447 -6.7335044874999985C3.9464593875 0.9314955124999998 0.9316168749999998 3.9463444125 0.9316168749999998 7.664999999999999c0 3.7186108749999995 3.0148425124999996 6.733447 6.7335108749999995 6.733447Z" stroke-width="0.67"></path>
  <path stroke="#191919" stroke-linecap="round" stroke-linejoin="round" d="m4.737289375 4.737410737499999 5.855229625 5.8552360125" stroke-width="0.67"></path>
  <path stroke="#191919" stroke-linecap="round" stroke-linejoin="round" d="M10.592519 4.737410737499999 4.737289375 10.59264675" stroke-width="0.67"></path>
</svg>