<svg xmlns="http://www.w3.org/2000/svg" fill="none" viewBox="-0.335 -0.335 16 16" id="Common-File-Text--Streamline-Ultimate" height="16" width="16">
  <desc>
    Common File Text Streamline Icon: https://streamlinehq.com
  </desc>
  <path fill="#e3e3e3" d="M13.290279624999998 3.0826649874999994c0.11459174999999999 0.11455342499999999 0.17897775 0.2699293625 0.17904162499999998 0.4319610749999999V14.080285625c0 0.16205087499999998 -0.064386 0.31745874999999996 -0.17897775 0.43198662499999996 -0.11452787499999997 0.11459174999999999 -0.26993575 0.17897775 -0.43198662499999996 0.17897775H2.4717133875c-0.1620444875 0 -0.31744597499999994 -0.064386 -0.43203133749999995 -0.17897775 -0.114578975 -0.11452787499999997 -0.1789458125 -0.26993575 -0.1789458125 -0.43198662499999996V1.2497271499999998c0 -0.1620381 0.0643668375 -0.31744597499999994 0.1789458125 -0.4320249499999999C2.1542674125 0.703123225 2.3096688999999997 0.6387499999999999 2.4717133875 0.6387499999999999H10.593477125c0.16198699999999996 0.0000319375 0.31739487499999997 0.06443071249999999 0.43192274999999997 0.179016075l2.2648797499999995 2.2648989124999996Z" stroke-width="0.67"></path>
  <path fill="#ffffff" d="m12.649996625 2.4423564375 -1.6245967499999998 -1.6245903624999998c-0.11452787499999997 -0.11458536249999998 -0.26993575 -0.1789841375 -0.43192274999999997 -0.179016075H2.4717133875c-0.1620444875 0 -0.31744597499999994 0.06437322499999999 -0.43203133749999995 0.1789522 -0.114578975 0.114578975 -0.1789458125 0.26998684999999994 -0.1789458125 0.4320249499999999V13.231003624999998L12.649996625 2.4423564375Z" stroke-width="0.67"></path>
  <path stroke="#191919" stroke-linecap="round" stroke-linejoin="round" d="M13.290279624999998 3.0826649874999994c0.11459174999999999 0.11455342499999999 0.17897775 0.2699293625 0.17904162499999998 0.4319610749999999V14.080285625c0 0.16205087499999998 -0.064386 0.31745874999999996 -0.17897775 0.43198662499999996 -0.11452787499999997 0.11459174999999999 -0.26993575 0.17897775 -0.43198662499999996 0.17897775H2.4717133875c-0.1620444875 0 -0.31744597499999994 -0.064386 -0.43203133749999995 -0.17897775 -0.114578975 -0.11452787499999997 -0.1789458125 -0.26993575 -0.1789458125 -0.43198662499999996V1.2497271499999998c0 -0.1620381 0.0643668375 -0.31744597499999994 0.1789458125 -0.4320249499999999C2.1542674125 0.703123225 2.3096688999999997 0.6387499999999999 2.4717133875 0.6387499999999999H10.593477125c0.16198699999999996 0.0000319375 0.31739487499999997 0.06443071249999999 0.43192274999999997 0.179016075l2.2648797499999995 2.2648989124999996Z" stroke-width="0.67"></path>
  <path stroke="#191919" stroke-linecap="round" stroke-linejoin="round" d="M3.9993606624999996 10.1088575H11.331105625" stroke-width="0.67"></path>
  <path stroke="#191919" stroke-linecap="round" stroke-linejoin="round" d="M3.9993606624999996 11.941814499999998H11.331105625" stroke-width="0.67"></path>
  <path stroke="#191919" stroke-linecap="round" stroke-linejoin="round" d="M3.9993606624999996 8.275964375H11.331105625" stroke-width="0.67"></path>
  <path stroke="#191919" stroke-linecap="round" stroke-linejoin="round" d="M3.9993606624999996 6.443007375H11.331105625" stroke-width="0.67"></path>
  <path stroke="#191919" stroke-linecap="round" stroke-linejoin="round" d="M3.9993606624999996 4.6100823124999994h4.2768592125" stroke-width="0.67"></path>
  <path stroke="#191919" stroke-linecap="round" stroke-linejoin="round" d="M3.9993606624999996 4.6100823124999994h4.2768592125" stroke-width="0.67"></path>
  <path stroke="#191919" stroke-linecap="round" stroke-linejoin="round" d="M3.9993606624999996 6.443007375H11.331105625" stroke-width="0.67"></path>
  <path stroke="#191919" stroke-linecap="round" stroke-linejoin="round" d="M3.9993606624999996 8.275964375H11.331105625" stroke-width="0.67"></path>
  <path stroke="#191919" stroke-linecap="round" stroke-linejoin="round" d="M3.9993606624999996 10.1088575H11.331105625" stroke-width="0.67"></path>
  <path stroke="#191919" stroke-linecap="round" stroke-linejoin="round" d="M3.9993606624999996 11.941814499999998H11.331105625" stroke-width="0.67"></path>
</svg>