<svg xmlns="http://www.w3.org/2000/svg" fill="none" viewBox="-0.335 -0.335 16 16" id="Playlist-Songs--Streamline-Ultimate" height="16" width="16">
  <desc>
    Playlist Songs Streamline Icon: https://streamlinehq.com
  </desc>
  <g clip-path="url(#a)">
    <path fill="#c2f3ff" d="M11.272212875 0.6387499999999999H4.1005003375c-0.3319775375 0 -0.6010956875 0.26911814999999994 -0.6010956875 0.6011020749999999V10.857408625c0 0.33195837499999997 0.26911814999999994 0.6010637499999999 0.6010956875 0.6010637499999999H11.272212875c0.33195837499999997 0 0.6010637499999999 -0.269105375 0.6010637499999999 -0.6010637499999999V1.239852075c0 -0.33198392499999996 -0.269105375 -0.6011020749999999 -0.6010637499999999 -0.6011020749999999Z" stroke-width="0.67"></path>
    <path fill="#808080" d="M10.971361625 13.489058624999998c0 0.237806625 -0.070518 0.4701838749999999 -0.20261149999999997 0.6678769999999999 -0.1320935 0.19775699999999996 -0.319886 0.35182349999999996 -0.53948825 0.442845375 -0.21972999999999995 0.09095799999999998 -0.461433 0.11478337499999999 -0.6946406249999999 0.06841012499999999 -0.23314374999999996 -0.04637324999999999 -0.44738049999999996 -0.16090112499999998 -0.6154995 -0.32902012499999994s-0.28264687499999996 -0.38235575 -0.32908399999999993 -0.6155633749999999c-0.04630937499999999 -0.23320762499999997 -0.022547874999999995 -0.474910625 0.06841012499999999 -0.6945767499999999 0.09102187499999999 -0.21966612499999996 0.24515224999999996 -0.40745862499999996 0.442845375 -0.53948825 0.19769312499999997 -0.132157375 0.43007037499999995 -0.202675375 0.6678769999999999 -0.202675375h1.202191375v1.202191375Z" stroke-width="0.67"></path>
    <path fill="#808080" d="M14.578063499999999 11.685739624999998c0 0.237806625 -0.070518 0.4701838749999999 -0.20261149999999997 0.6678769999999999 -0.1320935 0.19769312499999997 -0.319886 0.35182349999999996 -0.53948825 0.442845375 -0.21972999999999995 0.09095799999999998 -0.461433 0.11471949999999999 -0.6946406249999999 0.06841012499999999 -0.23314374999999996 -0.046437124999999996 -0.44738049999999996 -0.16090112499999998 -0.6155633749999999 -0.32908399999999993 -0.16811899999999996 -0.16811899999999996 -0.282583 -0.38235575 -0.32902012499999994 -0.6154995 -0.04630937499999999 -0.23320762499999997 -0.022547874999999995 -0.474910625 0.06841012499999999 -0.6946406249999999 0.09102187499999999 -0.21960224999999997 0.24515224999999996 -0.40739474999999997 0.442845375 -0.53948825 0.19769312499999997 -0.1320935 0.43007037499999995 -0.20261149999999997 0.6678769999999999 -0.20261149999999997h1.202191375v1.202191375Z" stroke-width="0.67"></path>
    <path stroke="#191919" stroke-linecap="round" stroke-linejoin="round" d="M10.971680999999998 12.286803375v-2.68389975c0 -0.09887849999999998 0.024400249999999995 -0.196287875 0.07102899999999998 -0.283541125s0.11414462499999999 -0.16160375 0.19641562499999998 -0.21653624999999999l2.40438275 -1.6031347499999997c0.09063862499999999 -0.06042574999999999 0.19584074999999998 -0.095109875 0.304619875 -0.10034762499999998 0.10871524999999999 -0.005301624999999999 0.216855625 0.019098624999999998 0.31285975 0.070518s0.17616724999999997 0.127941625 0.23205787499999997 0.22139075c0.05589062499999999 0.09338524999999999 0.08533699999999998 0.20031199999999996 0.08520924999999999 0.30915499999999996v2.483140625" stroke-width="0.67"></path>
    <path stroke="#191919" stroke-linecap="round" stroke-linejoin="round" d="M3.7582708625 1.4671320999999997H11.572553124999999" stroke-width="0.67"></path>
    <path fill="#ffef5e" d="M1.3533771125 2.0682341749999997c0.33197114999999994 0 0.6010956875 -0.2691245375 0.6010956875 -0.6010956875 0 -0.3319775375 -0.2691245375 -0.6011020749999999 -0.6010956875 -0.6011020749999999 -0.3319775375 0 -0.6011020749999999 0.2691245375 -0.6011020749999999 0.6011020749999999 0 0.33197114999999994 0.2691245375 0.6010956875 0.6011020749999999 0.6010956875Z" stroke-width="0.67"></path>
    <path stroke="#191919" stroke-linecap="round" stroke-linejoin="round" d="M3.7582708625 4.47265525H11.572553124999999" stroke-width="0.67"></path>
    <path stroke="#191919" stroke-linecap="round" stroke-linejoin="round" d="M3.7582708625 7.478037874999999H10.971425499999999" stroke-width="0.67"></path>
    <path fill="#ffef5e" d="M1.3533771125 5.073680674999999c0.33197114999999994 0 0.6010956875 -0.2691245375 0.6010956875 -0.6010956875 0 -0.3319775375 -0.2691245375 -0.6010956875 -0.6010956875 -0.6010956875 -0.3319775375 0 -0.6011020749999999 0.26911814999999994 -0.6011020749999999 0.6010956875 0 0.33197114999999994 0.2691245375 0.6010956875 0.6011020749999999 0.6010956875Z" stroke-width="0.67"></path>
    <path fill="#ffef5e" d="M1.3533771125 8.079229374999999c0.33197114999999994 0 0.6010956875 -0.269105375 0.6010956875 -0.6011276249999999 0 -0.33195837499999997 -0.2691245375 -0.6010637499999999 -0.6010956875 -0.6010637499999999 -0.3319775375 0 -0.6011020749999999 0.269105375 -0.6011020749999999 0.6010637499999999 0 0.33202224999999996 0.2691245375 0.6011276249999999 0.6011020749999999 0.6011276249999999Z" stroke-width="0.67"></path>
    <path stroke="#191919" stroke-linecap="round" stroke-linejoin="round" d="M3.7582708625 10.48354825h5.409899512499999" stroke-width="0.67"></path>
    <path fill="#ffef5e" d="M1.3533771125 11.084739749999999c0.33197114999999994 0 0.6010956875 -0.269105375 0.6010956875 -0.6011276249999999 0 -0.33195837499999997 -0.2691245375 -0.6010637499999999 -0.6010956875 -0.6010637499999999 -0.3319775375 0 -0.6011020749999999 0.269105375 -0.6011020749999999 0.6010637499999999 0 0.33202224999999996 0.2691245375 0.6011276249999999 0.6011020749999999 0.6011276249999999Z" stroke-width="0.67"></path>
    <path stroke="#191919" stroke-linecap="round" stroke-linejoin="round" d="M10.971361625 13.489058624999998c0 0.237806625 -0.070518 0.4701838749999999 -0.20261149999999997 0.6678769999999999 -0.1320935 0.19775699999999996 -0.319886 0.35182349999999996 -0.53948825 0.442845375 -0.21972999999999995 0.09095799999999998 -0.461433 0.11478337499999999 -0.6946406249999999 0.06841012499999999 -0.23314374999999996 -0.04637324999999999 -0.44738049999999996 -0.16090112499999998 -0.6154995 -0.32902012499999994s-0.28264687499999996 -0.38235575 -0.32908399999999993 -0.6155633749999999c-0.04630937499999999 -0.23320762499999997 -0.022547874999999995 -0.474910625 0.06841012499999999 -0.6945767499999999 0.09102187499999999 -0.21966612499999996 0.24515224999999996 -0.40745862499999996 0.442845375 -0.53948825 0.19769312499999997 -0.132157375 0.43007037499999995 -0.202675375 0.6678769999999999 -0.202675375h1.202191375v1.202191375Z" stroke-width="0.67"></path>
    <path stroke="#191919" stroke-linecap="round" stroke-linejoin="round" d="M14.578063499999999 11.685739624999998c0 0.237806625 -0.070518 0.4701838749999999 -0.20261149999999997 0.6678769999999999 -0.1320935 0.19769312499999997 -0.319886 0.35182349999999996 -0.53948825 0.442845375 -0.21972999999999995 0.09095799999999998 -0.461433 0.11471949999999999 -0.6946406249999999 0.06841012499999999 -0.23314374999999996 -0.046437124999999996 -0.44738049999999996 -0.16090112499999998 -0.6155633749999999 -0.32908399999999993 -0.16811899999999996 -0.16811899999999996 -0.282583 -0.38235575 -0.32902012499999994 -0.6154995 -0.04630937499999999 -0.23320762499999997 -0.022547874999999995 -0.474910625 0.06841012499999999 -0.6946406249999999 0.09102187499999999 -0.21960224999999997 0.24515224999999996 -0.40739474999999997 0.442845375 -0.53948825 0.19769312499999997 -0.1320935 0.43007037499999995 -0.20261149999999997 0.6678769999999999 -0.20261149999999997h1.202191375v1.202191375Z" stroke-width="0.67"></path>
    <path stroke="#191919" stroke-linecap="round" stroke-linejoin="round" d="M1.3533771125 2.0682341749999997c0.33197114999999994 0 0.6010956875 -0.2691245375 0.6010956875 -0.6010956875 0 -0.3319775375 -0.2691245375 -0.6011020749999999 -0.6010956875 -0.6011020749999999 -0.3319775375 0 -0.6011020749999999 0.2691245375 -0.6011020749999999 0.6011020749999999 0 0.33197114999999994 0.2691245375 0.6010956875 0.6011020749999999 0.6010956875Z" stroke-width="0.67"></path>
    <path stroke="#191919" stroke-linecap="round" stroke-linejoin="round" d="M1.3533771125 5.073680674999999c0.33197114999999994 0 0.6010956875 -0.2691245375 0.6010956875 -0.6010956875 0 -0.3319775375 -0.2691245375 -0.6010956875 -0.6010956875 -0.6010956875 -0.3319775375 0 -0.6011020749999999 0.26911814999999994 -0.6011020749999999 0.6010956875 0 0.33197114999999994 0.2691245375 0.6010956875 0.6011020749999999 0.6010956875Z" stroke-width="0.67"></path>
    <path stroke="#191919" stroke-linecap="round" stroke-linejoin="round" d="M1.3533771125 8.079229374999999c0.33197114999999994 0 0.6010956875 -0.269105375 0.6010956875 -0.6011276249999999 0 -0.33195837499999997 -0.2691245375 -0.6010637499999999 -0.6010956875 -0.6010637499999999 -0.3319775375 0 -0.6011020749999999 0.269105375 -0.6011020749999999 0.6010637499999999 0 0.33202224999999996 0.2691245375 0.6011276249999999 0.6011020749999999 0.6011276249999999Z" stroke-width="0.67"></path>
    <path stroke="#191919" stroke-linecap="round" stroke-linejoin="round" d="M1.3533771125 11.084739749999999c0.33197114999999994 0 0.6010956875 -0.269105375 0.6010956875 -0.6011276249999999 0 -0.33195837499999997 -0.2691245375 -0.6010637499999999 -0.6010956875 -0.6010637499999999 -0.3319775375 0 -0.6011020749999999 0.269105375 -0.6011020749999999 0.6010637499999999 0 0.33202224999999996 0.2691245375 0.6011276249999999 0.6011020749999999 0.6011276249999999Z" stroke-width="0.67"></path>
  </g>
  <defs>
    <clipPath id="a">
      <path fill="#ffffff" d="M0 0h15.329999999999998v15.329999999999998H0z" stroke-width="0.67"></path>
    </clipPath>
  </defs>
</svg>