<svg xmlns="http://www.w3.org/2000/svg" fill="none" viewBox="-0.335 -0.335 16 16" id="Board-Game-Dice-2--Streamline-Ultimate" height="16" width="16">
  <desc>
    Board Game Dice 2 Streamline Icon: https://streamlinehq.com
  </desc>
  <path fill="#e3e3e3" d="M6.1376784875 9.80340725H14.080413375c0.16198699999999996 0 0.31745874999999996 -0.064386 0.43198662499999996 -0.178913875 0.11459174999999999 -0.11459174999999999 0.17897775 -0.26999962499999997 0.17897775 -0.43205049999999995V1.8607042999999999c0 -0.1620444875 -0.064386 -0.31744597499999994 -0.17897775 -0.4320249499999999 -0.11452787499999997 -0.114578975 -0.26999962499999997 -0.1789522 -0.43198662499999996 -0.1789522H6.74864925c-0.16205087499999998 0 -0.31745874999999996 0.06437322499999999 -0.4320249499999999 0.1789522 -0.11457258749999999 0.114578975 -0.1789458125 0.26998046249999996 -0.1789458125 0.4320249499999999V9.80340725Z" stroke-width="0.67"></path>
  <path fill="#b2b2b2" d="M14.080413375 7.970514124999999H6.1376784875v1.8328931249999998H14.080413375c0.16198699999999996 0 0.31745874999999996 -0.064386 0.43198662499999996 -0.178913875 0.11459174999999999 -0.11459174999999999 0.17897775 -0.26999962499999997 0.17897775 -0.43205049999999995v-1.832957c0 0.16205087499999998 -0.064386 0.31745874999999996 -0.17897775 0.43205049999999995 -0.11452787499999997 0.11452787499999997 -0.26999962499999997 0.17897775 -0.43198662499999996 0.17897775Z" stroke-width="0.67"></path>
  <path stroke="#191919" stroke-linecap="round" stroke-linejoin="round" d="M10.414499375 9.80340725h3.665914c0.16198699999999996 0 0.31745874999999996 -0.064386 0.43198662499999996 -0.178913875 0.11459174999999999 -0.11459174999999999 0.17897775 -0.26999962499999997 0.17897775 -0.43205049999999995V1.8607042999999999c0 -0.1620444875 -0.064386 -0.31744597499999994 -0.17897775 -0.4320249499999999 -0.11452787499999997 -0.114578975 -0.26999962499999997 -0.1789522 -0.43198662499999996 -0.1789522H6.74864925c-0.16205087499999998 0 -0.31745874999999996 0.06437322499999999 -0.4320249499999999 0.1789522 -0.11457258749999999 0.114578975 -0.1789458125 0.26998046249999996 -0.1789458125 0.4320249499999999v2.4439149875" stroke-width="0.67"></path>
  <path fill="#ffffff" d="M8.5814785 5.526579974999999H1.2497271499999998C0.9122946874999999 5.526579974999999 0.6387499999999999 5.800124662499999 0.6387499999999999 6.137557125V13.469321249999998c0 0.33738775 0.2735446875 0.6109643749999999 0.61097715 0.6109643749999999H8.5814785c0.337451625 0 0.6109643749999999 -0.27357662499999996 0.6109643749999999 -0.6109643749999999V6.137557125c0 -0.3374324625 -0.27351274999999997 -0.61097715 -0.6109643749999999 -0.61097715Z" stroke-width="0.67"></path>
  <path fill="#e3e3e3" d="M8.5814785 12.552842749999998H1.2497271499999998c-0.1620444875 0 -0.31744597499999994 -0.064386 -0.4320249499999999 -0.17897775C0.703123225 12.259337124999998 0.6387499999999999 12.103865375 0.6387499999999999 11.941814499999998v1.52750675c0 0.16198699999999996 0.06437322499999999 0.31745874999999996 0.1789522 0.43198662499999996 0.114578975 0.11459174999999999 0.26998046249999996 0.17897775 0.4320249499999999 0.17897775H8.5814785c0.16205087499999998 0 0.31745874999999996 -0.064386 0.43198662499999996 -0.17897775 0.11459174999999999 -0.11452787499999997 0.17897775 -0.26999962499999997 0.17897775 -0.43198662499999996v-1.52750675c0 0.16205087499999998 -0.064386 0.31752262499999995 -0.17897775 0.43205049999999995 -0.11452787499999997 0.11459174999999999 -0.26993575 0.17897775 -0.43198662499999996 0.17897775Z" stroke-width="0.67"></path>
  <path stroke="#191919" stroke-linecap="round" stroke-linejoin="round" d="M8.5814785 5.526579974999999H1.2497271499999998C0.9122946874999999 5.526579974999999 0.6387499999999999 5.800124662499999 0.6387499999999999 6.137557125V13.469321249999998c0 0.33738775 0.2735446875 0.6109643749999999 0.61097715 0.6109643749999999H8.5814785c0.337451625 0 0.6109643749999999 -0.27357662499999996 0.6109643749999999 -0.6109643749999999V6.137557125c0 -0.3374324625 -0.27351274999999997 -0.61097715 -0.6109643749999999 -0.61097715Z" stroke-width="0.67"></path>
  <path stroke="#191919" stroke-linecap="round" stroke-linejoin="round" d="M11.941942249999999 7.512274874999999c0.04049674999999999 0 0.07939662499999998 0.016032625 0.10801262499999999 0.0447125 0.028679874999999997 0.028615999999999996 0.0447125 0.06751587499999999 0.0447125 0.10801262499999999" stroke-width="0.67"></path>
  <path stroke="#191919" stroke-linecap="round" stroke-linejoin="round" d="M11.789089374999998 7.664999999999999c0 -0.04049674999999999 0.0160965 -0.07939662499999998 0.04477637499999999 -0.10801262499999999 0.028615999999999996 -0.028679874999999997 0.06751587499999999 -0.0447125 0.10801262499999999 -0.0447125" stroke-width="0.67"></path>
  <path stroke="#191919" stroke-linecap="round" stroke-linejoin="round" d="M11.941878374999998 7.817725124999999c-0.04049674999999999 0 -0.07939662499999998 -0.016032625 -0.10801262499999999 -0.0447125 -0.028679874999999997 -0.028615999999999996 -0.04477637499999999 -0.06751587499999999 -0.04477637499999999 -0.10801262499999999" stroke-width="0.67"></path>
  <path stroke="#191919" stroke-linecap="round" stroke-linejoin="round" d="M12.094667374999998 7.664999999999999c0 0.04049674999999999 -0.016032625 0.07939662499999998 -0.0447125 0.10801262499999999 -0.028615999999999996 0.028679874999999997 -0.06751587499999999 0.0447125 -0.10801262499999999 0.0447125" stroke-width="0.67"></path>
  <path stroke="#191919" stroke-linecap="round" stroke-linejoin="round" d="M11.941942249999999 3.235409275c0.04049674999999999 0 0.07939662499999998 0.0160901125 0.10801262499999999 0.04473166249999999 0.028679874999999997 0.028647937499999998 0.0447125 0.0675031 0.0447125 0.10801262499999999" stroke-width="0.67"></path>
  <path stroke="#191919" stroke-linecap="round" stroke-linejoin="round" d="M11.789089374999998 3.3881535625c0 -0.040509525 0.0160965 -0.07936468749999999 0.04477637499999999 -0.10801262499999999 0.028615999999999996 -0.028641549999999995 0.06751587499999999 -0.04473166249999999 0.10801262499999999 -0.04473166249999999" stroke-width="0.67"></path>
  <path stroke="#191919" stroke-linecap="round" stroke-linejoin="round" d="M11.941878374999998 3.5408914625c-0.04049674999999999 0 -0.07939662499999998 -0.0160901125 -0.10801262499999999 -0.04473166249999999 -0.028679874999999997 -0.028647937499999998 -0.04477637499999999 -0.0675031 -0.04477637499999999 -0.10801262499999999" stroke-width="0.67"></path>
  <path stroke="#191919" stroke-linecap="round" stroke-linejoin="round" d="M12.094667374999998 3.3881471749999994c0 0.040509525 -0.016032625 0.07936468749999999 -0.0447125 0.10801262499999999 -0.028615999999999996 0.028641549999999995 -0.06751587499999999 0.04473166249999999 -0.10801262499999999 0.04473166249999999" stroke-width="0.67"></path>
  <path stroke="#191919" stroke-linecap="round" stroke-linejoin="round" d="M8.886992625 3.235409275c0.04049674999999999 0 0.07933275 0.0160901125 0.10801262499999999 0.04473166249999999 0.028679874999999997 0.028647937499999998 0.0447125 0.0675031 0.0447125 0.10801262499999999" stroke-width="0.67"></path>
  <path stroke="#191919" stroke-linecap="round" stroke-linejoin="round" d="M8.734139749999999 3.3881535625c0 -0.040509525 0.0160965 -0.07936468749999999 0.0447125 -0.10801262499999999 0.028679874999999997 -0.028641549999999995 0.06751587499999999 -0.04473166249999999 0.10807649999999998 -0.04473166249999999" stroke-width="0.67"></path>
  <path stroke="#191919" stroke-linecap="round" stroke-linejoin="round" d="M8.88692875 3.5408914625c-0.040560624999999996 0 -0.07939662499999998 -0.0160901125 -0.10807649999999998 -0.04473166249999999 -0.028615999999999996 -0.028647937499999998 -0.0447125 -0.0675031 -0.0447125 -0.10801262499999999" stroke-width="0.67"></path>
  <path stroke="#191919" stroke-linecap="round" stroke-linejoin="round" d="M9.03971775 3.3881471749999994c0 0.040509525 -0.016032625 0.07936468749999999 -0.0447125 0.10801262499999999 -0.028679874999999997 0.028641549999999995 -0.06751587499999999 0.04473166249999999 -0.10801262499999999 0.04473166249999999" stroke-width="0.67"></path>
  <path stroke="#191919" stroke-linecap="round" stroke-linejoin="round" d="M7.054035624999999 8.12323925c0.04049674999999999 0 0.07933275 0.016032625 0.10801262499999999 0.0447125 0.028615999999999996 0.028679874999999997 0.0447125 0.06751587499999999 0.0447125 0.10801262499999999" stroke-width="0.67"></path>
  <path stroke="#191919" stroke-linecap="round" stroke-linejoin="round" d="M6.901182749999999 8.275964375c0 -0.04049674999999999 0.0160965 -0.07933275 0.0447125 -0.10801262499999999 0.028679874999999997 -0.028679874999999997 0.06751587499999999 -0.0447125 0.10801262499999999 -0.0447125" stroke-width="0.67"></path>
  <path stroke="#191919" stroke-linecap="round" stroke-linejoin="round" d="M7.053907874999999 8.428753375c-0.04049674999999999 0 -0.07933275 -0.0160965 -0.10801262499999999 -0.04477637499999999 -0.028615999999999996 -0.028615999999999996 -0.0447125 -0.06751587499999999 -0.0447125 -0.10801262499999999" stroke-width="0.67"></path>
  <path stroke="#191919" stroke-linecap="round" stroke-linejoin="round" d="M7.206760749999999 8.275964375c0 0.04049674999999999 -0.0160965 0.07939662499999998 -0.0447125 0.10801262499999999 -0.028679874999999997 0.028679874999999997 -0.06751587499999999 0.04477637499999999 -0.10801262499999999 0.04477637499999999" stroke-width="0.67"></path>
  <path stroke="#191919" stroke-linecap="round" stroke-linejoin="round" d="M4.915692249999999 8.12323925c0.040509525 0 0.07935829999999999 0.016032625 0.10800623749999998 0.0447125 0.028647937499999998 0.028679874999999997 0.04473805 0.06751587499999999 0.04473805 0.10801262499999999" stroke-width="0.67"></path>
  <path stroke="#191919" stroke-linecap="round" stroke-linejoin="round" d="M4.762864925 8.275964375c0 -0.04049674999999999 0.0160965 -0.07933275 0.04473805 -0.10801262499999999 0.028647937499999998 -0.028679874999999997 0.0675031 -0.0447125 0.10800623749999998 -0.0447125" stroke-width="0.67"></path>
  <path stroke="#191919" stroke-linecap="round" stroke-linejoin="round" d="M4.9156092125 8.428753375c-0.040503137499999994 0 -0.07935829999999999 -0.0160965 -0.10800623749999998 -0.04477637499999999 -0.028641549999999995 -0.028615999999999996 -0.04473805 -0.06751587499999999 -0.04473805 -0.10801262499999999" stroke-width="0.67"></path>
  <path stroke="#191919" stroke-linecap="round" stroke-linejoin="round" d="M5.068436537499999 8.275964375c0 0.04049674999999999 -0.0160901125 0.07939662499999998 -0.04473805 0.10801262499999999 -0.028647937499999998 0.028679874999999997 -0.06749671249999999 0.04477637499999999 -0.10800623749999998 0.04477637499999999" stroke-width="0.67"></path>
  <path stroke="#191919" stroke-linecap="round" stroke-linejoin="round" d="M2.777067825 8.12323925c0.040503137499999994 0 0.07935829999999999 0.016032625 0.10800623749999998 0.0447125 0.028641549999999995 0.028679874999999997 0.04473805 0.06751587499999999 0.04473805 0.10801262499999999" stroke-width="0.67"></path>
  <path stroke="#191919" stroke-linecap="round" stroke-linejoin="round" d="M2.6245534874999996 8.275964375c0 -0.04049674999999999 0.0160901125 -0.07933275 0.04473166249999999 -0.10801262499999999 0.028647937499999998 -0.028679874999999997 0.0675031 -0.0447125 0.10801262499999999 -0.0447125" stroke-width="0.67"></path>
  <path stroke="#191919" stroke-linecap="round" stroke-linejoin="round" d="M2.7772977749999996 8.428753375c-0.040509525 0 -0.07936468749999999 -0.0160965 -0.10801262499999999 -0.04477637499999999 -0.028641549999999995 -0.028615999999999996 -0.04473166249999999 -0.06751587499999999 -0.04473166249999999 -0.10801262499999999" stroke-width="0.67"></path>
  <path stroke="#191919" stroke-linecap="round" stroke-linejoin="round" d="M2.9298121124999996 8.275964375c0 0.04049674999999999 -0.0160965 0.07939662499999998 -0.04473805 0.10801262499999999 -0.028647937499999998 0.028679874999999997 -0.0675031 0.04477637499999999 -0.10800623749999998 0.04477637499999999" stroke-width="0.67"></path>
  <path stroke="#191919" stroke-linecap="round" stroke-linejoin="round" d="M2.777067825 11.178124999999998c0.040503137499999994 0 0.07935829999999999 0.0160965 0.10800623749999998 0.0447125 0.028641549999999995 0.028679874999999997 0.04473805 0.06751587499999999 0.04473805 0.10801262499999999" stroke-width="0.67"></path>
  <path stroke="#191919" stroke-linecap="round" stroke-linejoin="round" d="M2.6245534874999996 11.330850125c0 -0.04049674999999999 0.0160901125 -0.07933275 0.04473166249999999 -0.10801262499999999 0.028647937499999998 -0.028615999999999996 0.0675031 -0.0447125 0.10801262499999999 -0.0447125" stroke-width="0.67"></path>
  <path stroke="#191919" stroke-linecap="round" stroke-linejoin="round" d="M2.7772977749999996 11.483639125c-0.040509525 0 -0.07936468749999999 -0.0160965 -0.10801262499999999 -0.04477637499999999 -0.028641549999999995 -0.028615999999999996 -0.04473166249999999 -0.06751587499999999 -0.04473166249999999 -0.10801262499999999" stroke-width="0.67"></path>
  <path stroke="#191919" stroke-linecap="round" stroke-linejoin="round" d="M2.9298121124999996 11.330850125c0 0.04049674999999999 -0.0160965 0.07939662499999998 -0.04473805 0.10801262499999999 -0.028647937499999998 0.028679874999999997 -0.0675031 0.04477637499999999 -0.10800623749999998 0.04477637499999999" stroke-width="0.67"></path>
  <path stroke="#191919" stroke-linecap="round" stroke-linejoin="round" d="M4.915692249999999 11.178124999999998c0.040509525 0 0.07935829999999999 0.0160965 0.10800623749999998 0.0447125 0.028647937499999998 0.028679874999999997 0.04473805 0.06751587499999999 0.04473805 0.10801262499999999" stroke-width="0.67"></path>
  <path stroke="#191919" stroke-linecap="round" stroke-linejoin="round" d="M4.762864925 11.330850125c0 -0.04049674999999999 0.0160965 -0.07933275 0.04473805 -0.10801262499999999 0.028647937499999998 -0.028615999999999996 0.0675031 -0.0447125 0.10800623749999998 -0.0447125" stroke-width="0.67"></path>
  <path stroke="#191919" stroke-linecap="round" stroke-linejoin="round" d="M4.9156092125 11.483639125c-0.040503137499999994 0 -0.07935829999999999 -0.0160965 -0.10800623749999998 -0.04477637499999999 -0.028641549999999995 -0.028615999999999996 -0.04473805 -0.06751587499999999 -0.04473805 -0.10801262499999999" stroke-width="0.67"></path>
  <path stroke="#191919" stroke-linecap="round" stroke-linejoin="round" d="M5.068436537499999 11.330850125c0 0.04049674999999999 -0.0160901125 0.07939662499999998 -0.04473805 0.10801262499999999 -0.028647937499999998 0.028679874999999997 -0.06749671249999999 0.04477637499999999 -0.10800623749999998 0.04477637499999999" stroke-width="0.67"></path>
  <path stroke="#191919" stroke-linecap="round" stroke-linejoin="round" d="M7.054035624999999 11.178124999999998c0.04049674999999999 0 0.07933275 0.0160965 0.10801262499999999 0.0447125 0.028615999999999996 0.028679874999999997 0.0447125 0.06751587499999999 0.0447125 0.10801262499999999" stroke-width="0.67"></path>
  <path stroke="#191919" stroke-linecap="round" stroke-linejoin="round" d="M6.901182749999999 11.330850125c0 -0.04049674999999999 0.0160965 -0.07933275 0.0447125 -0.10801262499999999 0.028679874999999997 -0.028615999999999996 0.06751587499999999 -0.0447125 0.10801262499999999 -0.0447125" stroke-width="0.67"></path>
  <path stroke="#191919" stroke-linecap="round" stroke-linejoin="round" d="M7.053907874999999 11.483639125c-0.04049674999999999 0 -0.07933275 -0.0160965 -0.10801262499999999 -0.04477637499999999 -0.028615999999999996 -0.028615999999999996 -0.0447125 -0.06751587499999999 -0.0447125 -0.10801262499999999" stroke-width="0.67"></path>
  <path stroke="#191919" stroke-linecap="round" stroke-linejoin="round" d="M7.206760749999999 11.330850125c0 0.04049674999999999 -0.0160965 0.07939662499999998 -0.0447125 0.10801262499999999 -0.028679874999999997 0.028679874999999997 -0.06751587499999999 0.04477637499999999 -0.10801262499999999 0.04477637499999999" stroke-width="0.67"></path>
</svg>