<svg xmlns="http://www.w3.org/2000/svg" fill="none" viewBox="-0.335 -0.335 16 16" id="Design-Tool-Pencil-Ruler--Streamline-Ultimate" height="16" width="16">
  <desc>
    Design Tool Pencil Ruler Streamline Icon: https://streamlinehq.com
  </desc>
  <path fill="#ff808c" d="M6.137308012499999 5.221085012499999V11.63636425H3.6933994125V5.221085012499999l0.1344121625 -0.305488575h2.1750842749999997l0.1344121625 0.305488575Z" stroke-width="0.67"></path>
  <path fill="#ffbc44" d="M6.0029022375 4.91559005H3.8278243499999998l0.9653428749999999 -2.168977825c0.06720927499999999 -0.1527442875 0.1771828625 -0.1527442875 0.2504985875 0l0.959236425 2.168977825Z" stroke-width="0.67"></path>
  <path fill="#ffef5e" d="M6.137308012499999 11.63636425H3.6933994125v1.2219287499999998h2.4439086v-1.2219287499999998Z" stroke-width="0.67"></path>
  <path fill="#ffffff" d="M6.137308012499999 12.858293v0.6109643749999999c0 0.32410174999999997 -0.1287400625 0.634853625 -0.3579044 0.864037125 -0.22915795 0.22918349999999998 -0.5399673125 0.3579555 -0.8640498999999998 0.3579555 -0.32408258749999996 0 -0.6348919499999999 -0.128772 -0.8640498999999998 -0.3579555 -0.22916433749999995 -0.22918349999999998 -0.3579044 -0.539935375 -0.3579044 -0.864037125v-0.6109643749999999h2.4439086Z" stroke-width="0.67"></path>
  <path stroke="#191919" stroke-linecap="round" stroke-linejoin="round" d="M6.137308012499999 5.221085012499999V11.63636425H3.6933994125V5.221085012499999l0.1344121625 -0.305488575h2.1750842749999997l0.1344121625 0.305488575Z" stroke-width="0.67"></path>
  <path stroke="#191919" stroke-linecap="round" stroke-linejoin="round" d="M6.0029022375 4.91559005H3.8278243499999998l0.9653428749999999 -2.168977825c0.06720927499999999 -0.1527442875 0.1771828625 -0.1527442875 0.2504985875 0l0.959236425 2.168977825Z" stroke-width="0.67"></path>
  <path stroke="#191919" stroke-linecap="round" stroke-linejoin="round" d="M6.137308012499999 11.63636425H3.6933994125v1.2219287499999998h2.4439086v-1.2219287499999998Z" stroke-width="0.67"></path>
  <path stroke="#191919" stroke-linecap="round" stroke-linejoin="round" d="M6.137308012499999 12.858293v0.6109643749999999c0 0.32410174999999997 -0.1287400625 0.634853625 -0.3579044 0.864037125 -0.22915795 0.22918349999999998 -0.5399673125 0.3579555 -0.8640498999999998 0.3579555 -0.32408258749999996 0 -0.6348919499999999 -0.128772 -0.8640498999999998 -0.3579555 -0.22916433749999995 -0.22918349999999998 -0.3579044 -0.539935375 -0.3579044 -0.864037125v-0.6109643749999999h2.4439086Z" stroke-width="0.67"></path>
  <path fill="#c2f3ff" d="M7.970641874999999 1.2497271499999998c0 -0.1620444875 0.064386 -0.31744597499999994 0.17897775 -0.4320249499999999C8.2641475 0.703123225 8.419619249999998 0.6387499999999999 8.58160625 0.6387499999999999h2.4439213749999995c0.16205087499999998 0 0.31745874999999996 0.06437322499999999 0.43205049999999995 0.1789522 0.11452787499999997 0.114578975 0.178913875 0.26998046249999996 0.178913875 0.4320249499999999V14.080285625c0 0.16198699999999996 -0.064386 0.31745874999999996 -0.178913875 0.43198662499999996 -0.11459174999999999 0.11459174999999999 -0.26999962499999997 0.17897775 -0.43205049999999995 0.17897775H8.58160625c-0.16198699999999996 0 -0.31745874999999996 -0.064386 -0.43198662499999996 -0.17897775 -0.11459174999999999 -0.11452787499999997 -0.17897775 -0.26999962499999997 -0.17897775 -0.43198662499999996V1.2497271499999998Z" stroke-width="0.67"></path>
  <path fill="#66e1ff" d="M7.970641874999999 9.345168v4.735117624999999c0 0.16198699999999996 0.064386 0.31745874999999996 0.17897775 0.43198662499999996 0.11452787499999997 0.11459174999999999 0.26999962499999997 0.17897775 0.43198662499999996 0.17897775h2.4439213749999995c0.16205087499999998 0 0.31745874999999996 -0.064386 0.43205049999999995 -0.17897775 0.11452787499999997 -0.11452787499999997 0.178913875 -0.26999962499999997 0.178913875 -0.43198662499999996V5.679317874999999l-3.6658501249999995 3.6658501249999995Z" stroke-width="0.67"></path>
  <path stroke="#191919" stroke-linecap="round" stroke-linejoin="round" d="M7.970641874999999 1.2497271499999998c0 -0.1620444875 0.064386 -0.31744597499999994 0.17897775 -0.4320249499999999C8.2641475 0.703123225 8.419619249999998 0.6387499999999999 8.58160625 0.6387499999999999h2.4439213749999995c0.16205087499999998 0 0.31745874999999996 0.06437322499999999 0.43205049999999995 0.1789522 0.11452787499999997 0.114578975 0.178913875 0.26998046249999996 0.178913875 0.4320249499999999V14.080285625c0 0.16198699999999996 -0.064386 0.31745874999999996 -0.178913875 0.43198662499999996 -0.11459174999999999 0.11459174999999999 -0.26999962499999997 0.17897775 -0.43205049999999995 0.17897775H8.58160625c-0.16198699999999996 0 -0.31745874999999996 -0.064386 -0.43198662499999996 -0.17897775 -0.11459174999999999 -0.11452787499999997 -0.17897775 -0.26999962499999997 -0.17897775 -0.43198662499999996V1.2497271499999998Z" stroke-width="0.67"></path>
  <path stroke="#191919" stroke-linecap="round" stroke-linejoin="round" d="M7.970641874999999 2.4716878374999998h1.221992625" stroke-width="0.67"></path>
  <path stroke="#191919" stroke-linecap="round" stroke-linejoin="round" d="M7.970641874999999 4.9155964375h1.221992625" stroke-width="0.67"></path>
  <path stroke="#191919" stroke-linecap="round" stroke-linejoin="round" d="M7.970641874999999 7.359485874999999h1.221992625" stroke-width="0.67"></path>
  <path stroke="#191919" stroke-linecap="round" stroke-linejoin="round" d="M7.970641874999999 9.80340725h1.221992625" stroke-width="0.67"></path>
  <path stroke="#191919" stroke-linecap="round" stroke-linejoin="round" d="M7.970641874999999 12.247328624999998h1.221992625" stroke-width="0.67"></path>
  <path stroke="#191919" stroke-linecap="round" stroke-linejoin="round" d="M4.915692249999999 4.9155964375V11.63636425" stroke-width="0.67"></path>
</svg>