<svg xmlns="http://www.w3.org/2000/svg" fill="none" viewBox="-0.335 -0.335 16 16" id="Common-File-Add--Streamline-Ultimate" height="16" width="16">
  <desc>
    Common File Add Streamline Icon: https://streamlinehq.com
  </desc>
  <path fill="#e3e3e3" d="M12.068606375 3.0826649874999994c0.11459174999999999 0.11455342499999999 0.17897775 0.2699293625 0.17904162499999998 0.4319610749999999V14.080285625c0 0.16205087499999998 -0.064386 0.31745874999999996 -0.17897775 0.43198662499999996 -0.11452787499999997 0.11459174999999999 -0.26993575 0.17897775 -0.43198662499999996 0.17897775H1.2500401374999999c-0.1620444875 0 -0.31744597499999994 -0.064386 -0.4320249499999999 -0.17897775 -0.11458536249999998 -0.11452787499999997 -0.1789522 -0.26993575 -0.1789522 -0.43198662499999996V1.2497271499999998c0 -0.1620381 0.0643668375 -0.31744597499999994 0.1789522 -0.4320249499999999C0.9325941624999998 0.703123225 1.0879956499999999 0.6387499999999999 1.2500401374999999 0.6387499999999999H9.371803875c0.16198699999999996 0.0000319375 0.31739487499999997 0.06443071249999999 0.43192274999999997 0.179016075l2.2648797499999995 2.2648989124999996Z" stroke-width="0.67"></path>
  <path fill="#ffffff" d="m11.428323374999998 2.4423564375 -1.6245967499999998 -1.6245903624999998c-0.11452787499999997 -0.11458536249999998 -0.26993575 -0.1789841375 -0.43192274999999997 -0.179016075H1.2500401374999999c-0.1620444875 0 -0.31744597499999994 0.06437322499999999 -0.4320249499999999 0.1789522 -0.11458536249999998 0.114578975 -0.1789522 0.26998684999999994 -0.1789522 0.4320249499999999V13.231003624999998L11.428323374999998 2.4423564375Z" stroke-width="0.67"></path>
  <path stroke="#191919" stroke-linecap="round" stroke-linejoin="round" d="M6.748840874999999 14.691249999999998H1.2500401374999999c-0.1620444875 0 -0.31744597499999994 -0.064386 -0.4320249499999999 -0.17897775 -0.11458536249999998 -0.11452787499999997 -0.1789522 -0.26993575 -0.1789522 -0.43198662499999996V1.2497271499999998c0 -0.1620381 0.0643668375 -0.31744597499999994 0.1789522 -0.4320249499999999C0.9325941624999998 0.703123225 1.0879956499999999 0.6387499999999999 1.2500401374999999 0.6387499999999999H9.371803875c0.16198699999999996 0.0000319375 0.31739487499999997 0.06443071249999999 0.43192274999999997 0.179016075l2.2648797499999995 2.2648989124999996c0.11459174999999999 0.11455342499999999 0.17897775 0.2699293625 0.17904162499999998 0.4319610749999999v2.0119475249999996" stroke-width="0.67"></path>
  <path fill="#78eb7b" d="M11.025208249999999 14.691249999999998c0.9722413749999999 0 1.9046886249999997 -0.38625212499999995 2.59217525 -1.07373875 0.6874866249999999 -0.6874866249999999 1.073674875 -1.6199338749999996 1.073674875 -2.59217525 0 -0.9722413749999999 -0.38618824999999996 -1.9046886249999997 -1.073674875 -2.5921113749999996 -0.6874866249999999 -0.6874866249999999 -1.6199338749999996 -1.07373875 -2.59217525 -1.07373875 -0.9722413749999999 0 -1.9046886249999997 0.38625212499999995 -2.59217525 1.07373875 -0.6874866249999999 0.68742275 -1.073674875 1.61987 -1.073674875 2.5921113749999996 0 0.9722413749999999 0.38618824999999996 1.9046886249999997 1.073674875 2.59217525C9.120519625 14.304997874999998 10.052966875 14.691249999999998 11.025208249999999 14.691249999999998Z" stroke-width="0.67"></path>
  <path fill="#c9f7ca" d="M11.025655374999998 7.359485874999999c-0.745485125 0.0008942499999999999 -1.4729575 0.229119625 -2.085454875 0.6541438749999999 -0.6124335 0.42502424999999994 -1.0807649999999998 1.0266628749999998 -1.3425247499999997 1.7246888749999998 -0.26169587499999997 0.6980259999999999 -0.30442824999999996 1.45928825 -0.12238449999999998 2.1822254999999995 0.18204374999999998 0.7229372499999999 0.5801766249999999 1.3731847499999998 1.1413185 1.86400025l5.167615249999999 -5.1676791249999985c-0.342944875 -0.39487524999999996 -0.7666916249999999 -0.7115036249999999 -1.2426242499999998 -0.928487 -0.47593262499999994 -0.2169195 -0.9928729999999999 -0.32908399999999993 -1.5159453749999998 -0.32889237499999996Z" stroke-width="0.67"></path>
  <path stroke="#191919" stroke-linecap="round" stroke-linejoin="round" d="M11.025208249999999 14.691249999999998c0.9722413749999999 0 1.9046886249999997 -0.38625212499999995 2.59217525 -1.07373875 0.6874866249999999 -0.6874866249999999 1.073674875 -1.6199338749999996 1.073674875 -2.59217525 0 -0.9722413749999999 -0.38618824999999996 -1.9046886249999997 -1.073674875 -2.5921113749999996 -0.6874866249999999 -0.6874866249999999 -1.6199338749999996 -1.07373875 -2.59217525 -1.07373875 -0.9722413749999999 0 -1.9046886249999997 0.38625212499999995 -2.59217525 1.07373875 -0.6874866249999999 0.68742275 -1.073674875 1.61987 -1.073674875 2.5921113749999996 0 0.9722413749999999 0.38618824999999996 1.9046886249999997 1.073674875 2.59217525C9.120519625 14.304997874999998 10.052966875 14.691249999999998 11.025208249999999 14.691249999999998Z" stroke-width="0.67"></path>
  <path stroke="#191919" stroke-linecap="round" stroke-linejoin="round" d="M11.025272124999999 9.192442875v3.6658501249999995" stroke-width="0.67"></path>
  <path stroke="#191919" stroke-linecap="round" stroke-linejoin="round" d="M12.858165249999997 11.025336h-3.6658501249999995" stroke-width="0.67"></path>
</svg>