<svg xmlns="http://www.w3.org/2000/svg" fill="none" viewBox="-0.335 -0.335 16 16" id="Office-Drawer--Streamline-Ultimate" height="16" width="16">
  <desc>
    Office Drawer Streamline Icon: https://streamlinehq.com
  </desc>
  <path fill="#e3e3e3" d="M1.8604232499999998 5.5265672V2.4716750624999997c0 -0.1620444875 0.06437322499999999 -0.31744597499999994 0.1789458125 -0.43203133749999995 0.11458536249999998 -0.114578975 0.26998684999999994 -0.1789522 0.43203133749999995 -0.1789522h5.1933441c0.09479049999999999 0 0.18836737499999998 0.022081587499999996 0.27319337499999996 0.06450097499999999 0.08488987499999999 0.042425775 0.1586655 0.10400766249999999 0.21557812499999998 0.17989116249999998l0.7331572499999999 0.9775685499999999H12.858037499999998c0.16205087499999998 0 0.31745874999999996 0.06437322499999999 0.43198662499999996 0.1789458125 0.11459174999999999 0.11458536249999998 0.17897775 0.26998684999999994 0.17897775 0.43203133749999995v1.8329378374999998" stroke-width="0.67"></path>
  <path fill="#ffffff" d="M1.8604232499999998 7.970386374999999V4.915526174999999c0 -0.1620444875 0.06437322499999999 -0.31744597499999994 0.1789458125 -0.43203133749999995 0.11458536249999998 -0.114578975 0.26998684999999994 -0.1789522 0.43203133749999995 -0.1789522h5.1933441c0.09479049999999999 0 0.18836737499999998 0.022081587499999996 0.27319337499999996 0.06450097499999999 0.08488987499999999 0.042419387499999996 0.1586655 0.10400766249999999 0.21557812499999998 0.17989116249999998l0.7331572499999999 0.9775685499999999H12.858037499999998c0.16205087499999998 0 0.31745874999999996 0.06437322499999999 0.43198662499999996 0.1789458125 0.11459174999999999 0.11458536249999998 0.17897775 0.26998684999999994 0.17897775 0.43203133749999995v1.8329058999999999" stroke-width="0.67"></path>
  <path stroke="#191919" stroke-linecap="round" stroke-linejoin="round" d="M1.8604232499999998 7.970386374999999V4.915526174999999c0 -0.1620444875 0.06437322499999999 -0.31744597499999994 0.1789458125 -0.43203133749999995 0.11458536249999998 -0.114578975 0.26998684999999994 -0.1789522 0.43203133749999995 -0.1789522h5.1933441c0.09479049999999999 0 0.18836737499999998 0.022081587499999996 0.27319337499999996 0.06450097499999999 0.08488987499999999 0.042419387499999996 0.1586655 0.10400766249999999 0.21557812499999998 0.17989116249999998l0.7331572499999999 0.9775685499999999H12.858037499999998c0.16205087499999998 0 0.31745874999999996 0.06437322499999999 0.43198662499999996 0.1789458125 0.11459174999999999 0.11458536249999998 0.17897775 0.26998684999999994 0.17897775 0.43203133749999995v1.8329058999999999" stroke-width="0.67"></path>
  <path fill="#e3bfb3" d="M0.6387499999999999 8.581414624999999c0 -0.16205087499999998 0.06437322499999999 -0.31745874999999996 0.1789522 -0.43205049999999995 0.114578975 -0.11452787499999997 0.26998046249999996 -0.17897775 0.4320249499999999 -0.17897775H14.080285625c0.16198699999999996 0 0.31745874999999996 0.06444987499999999 0.43198662499999996 0.17897775 0.11459174999999999 0.11459174999999999 0.17897775 0.26999962499999997 0.17897775 0.43205049999999995v4.2768144999999995c0 0.16205087499999998 -0.064386 0.31745874999999996 -0.17897775 0.43205049999999995 -0.11452787499999997 0.11452787499999997 -0.26999962499999997 0.178913875 -0.43198662499999996 0.178913875H1.2497271499999998c-0.1620444875 0 -0.31744597499999994 -0.064386 -0.4320249499999999 -0.178913875C0.703123225 13.175687875 0.6387499999999999 13.02028 0.6387499999999999 12.858229124999998v-4.2768144999999995Z" stroke-width="0.67"></path>
  <path fill="#c77f67" d="M14.080285625 11.63636425H1.2497271499999998c-0.1620444875 0 -0.31744597499999994 -0.064386 -0.4320249499999999 -0.17897775C0.703123225 11.342858624999998 0.6387499999999999 11.187386875 0.6387499999999999 11.025399874999998v1.8328931249999998c0 0.16205087499999998 0.06437322499999999 0.31745874999999996 0.1789522 0.43205049999999995 0.114578975 0.11452787499999997 0.26998046249999996 0.178913875 0.4320249499999999 0.178913875H14.080285625c0.16198699999999996 0 0.31745874999999996 -0.064386 0.43198662499999996 -0.178913875 0.11459174999999999 -0.11459174999999999 0.17897775 -0.26999962499999997 0.17897775 -0.43205049999999995v-1.8328931249999998c0 0.16198699999999996 -0.064386 0.31745874999999996 -0.17897775 0.43198662499999996 -0.11452787499999997 0.11459174999999999 -0.26999962499999997 0.17897775 -0.43198662499999996 0.17897775Z" stroke-width="0.67"></path>
  <path stroke="#191919" stroke-linecap="round" stroke-linejoin="round" d="M0.6387499999999999 8.581414624999999c0 -0.16205087499999998 0.06437322499999999 -0.31745874999999996 0.1789522 -0.43205049999999995 0.114578975 -0.11452787499999997 0.26998046249999996 -0.17897775 0.4320249499999999 -0.17897775H14.080285625c0.16198699999999996 0 0.31745874999999996 0.06444987499999999 0.43198662499999996 0.17897775 0.11459174999999999 0.11459174999999999 0.17897775 0.26999962499999997 0.17897775 0.43205049999999995v4.2768144999999995c0 0.16205087499999998 -0.064386 0.31745874999999996 -0.17897775 0.43205049999999995 -0.11452787499999997 0.11452787499999997 -0.26999962499999997 0.178913875 -0.43198662499999996 0.178913875H1.2497271499999998c-0.1620444875 0 -0.31744597499999994 -0.064386 -0.4320249499999999 -0.178913875C0.703123225 13.175687875 0.6387499999999999 13.02028 0.6387499999999999 12.858229124999998v-4.2768144999999995Z" stroke-width="0.67"></path>
  <path stroke="#191919" stroke-linecap="round" stroke-linejoin="round" d="M1.8604232499999998 3.0826522124999993v-0.61097715c0 -0.1620444875 0.06437322499999999 -0.31744597499999994 0.1789458125 -0.43203133749999995 0.11458536249999998 -0.114578975 0.26998684999999994 -0.1789522 0.43203133749999995 -0.1789522h5.1933441c0.09479049999999999 0 0.18836737499999998 0.022081587499999996 0.27319337499999996 0.06450097499999999 0.08488987499999999 0.042425775 0.1586655 0.10400766249999999 0.21557812499999998 0.17989116249999998l0.7331572499999999 0.9775685499999999H12.858037499999998c0.16205087499999998 0 0.31745874999999996 0.06437322499999999 0.43198662499999996 0.1789458125 0.11459174999999999 0.11458536249999998 0.17897775 0.26998684999999994 0.17897775 0.43203133749999995" stroke-width="0.67"></path>
  <path stroke="#191919" stroke-linecap="round" stroke-linejoin="round" d="M5.832023837499999 9.803343374999999h3.6658692874999996" stroke-width="0.67"></path>
</svg>