<svg xmlns="http://www.w3.org/2000/svg" fill="none" viewBox="-0.335 -0.335 16 16" id="Help-Question-Network--Streamline-Ultimate" height="16" width="16">
  <desc>
    Help Question Network Streamline Icon: https://streamlinehq.com
  </desc>
  <path fill="#c2f3ff" d="M7.65899575 11.741821875c2.25184925 0 4.077269 -1.8254836249999997 4.077269 -4.077269 0 -2.25184925 -1.8254197499999998 -4.0773137125 -4.077269 -4.0773137125 -2.2517917625 0 -4.077256225 1.8254644624999998 -4.077256225 4.0773137125 0 2.251785375 1.8254644624999998 4.077269 4.077256225 4.077269Z" stroke-width="0.67"></path>
  <path stroke="#191919" stroke-linecap="round" stroke-linejoin="round" d="m11.154107999999997 4.1738416124999995 1.233617875 -1.2068734124999998" stroke-width="0.67"></path>
  <path fill="#ffef5e" d="M13.198874499999997 3.2965376499999994c0.643412875 0 1.16495225 -0.5215585374999999 1.16495225 -1.164939475 0 -0.6433745499999999 -0.5215393749999999 -1.1649330875 -1.16495225 -1.1649330875s-1.16495225 0.5215585374999999 -1.16495225 1.1649330875c0 0.6433809374999999 0.5215393749999999 1.164939475 1.16495225 1.164939475Z" stroke-width="0.67"></path>
  <path fill="#fff9bf" d="M13.198874499999997 3.2965376499999994c-0.308963375 0 -0.6052795 -0.12273581249999997 -0.8237319999999999 -0.3412010875 -0.2184525 -0.21846527499999996 -0.34122024999999995 -0.5147750124999999 -0.34122024999999995 -0.8237383874999998 0 -0.30895698749999995 0.12276775 -0.6052667249999999 0.34122024999999995 -0.8237319999999999 0.2184525 -0.21847166249999997 0.5147686249999999 -0.3412010875 0.8237319999999999 -0.3412010875v2.3298725625Z" stroke-width="0.67"></path>
  <path stroke="#191919" stroke-linecap="round" stroke-linejoin="round" d="m11.138203124999999 11.147656625 1.2313822499999998 1.2394943749999998" stroke-width="0.67"></path>
  <path fill="#ffef5e" d="M13.204176124999998 14.363443499999997c0.643412875 0 1.16495225 -0.52160325 1.16495225 -1.16495225 0 -0.643412875 -0.5215393749999999 -1.16495225 -1.16495225 -1.16495225 -0.643349 0 -1.16495225 0.5215393749999999 -1.16495225 1.16495225 0 0.643349 0.52160325 1.16495225 1.16495225 1.16495225Z" stroke-width="0.67"></path>
  <path fill="#fff9bf" d="M13.204176124999998 14.363443499999997c-0.308963375 0 -0.6052156249999999 -0.12276775 -0.823668125 -0.34122024999999995 -0.21851637499999998 -0.21851637499999998 -0.34128412499999994 -0.5147686249999999 -0.34128412499999994 -0.8237319999999999 0 -0.30902725 0.12276775 -0.6052795 0.34128412499999994 -0.8237319999999999 0.2184525 -0.2184525 0.5147047499999999 -0.34122024999999995 0.823668125 -0.34122024999999995v2.3299045Z" stroke-width="0.67"></path>
  <path stroke="#191919" stroke-linecap="round" stroke-linejoin="round" d="M4.1644264374999995 4.1738416124999995 2.9429895249999998 2.9669681999999997" stroke-width="0.67"></path>
  <path fill="#ffef5e" d="M2.1321091749999996 3.2965376499999994c0.6433745499999999 0 1.1649330875 -0.5215585374999999 1.1649330875 -1.164939475 0 -0.6433745499999999 -0.5215585374999999 -1.1649330875 -1.1649330875 -1.1649330875s-1.164939475 0.5215585374999999 -1.164939475 1.1649330875c0 0.6433809374999999 0.521564925 1.164939475 1.164939475 1.164939475Z" stroke-width="0.67"></path>
  <path fill="#fff9bf" d="M2.1321091749999996 0.9666650874999999c-0.308963375 0 -0.6052731124999999 0.12272942499999999 -0.8237383874999998 0.3412010875 -0.21846527499999996 0.21846527499999996 -0.3412010875 0.5147750124999999 -0.3412010875 0.8237319999999999 0 0.308963375 0.12273581249999997 0.6052731124999999 0.3412010875 0.8237383874999998 0.21846527499999996 0.21846527499999996 0.5147750124999999 0.3412010875 0.8237383874999998 0.3412010875V0.9666650874999999Z" stroke-width="0.67"></path>
  <path stroke="#191919" stroke-linecap="round" stroke-linejoin="round" d="m4.1930041125 11.147656625 -1.2319251875 1.2394943749999998" stroke-width="0.67"></path>
  <path fill="#ffef5e" d="M2.1258685875 14.363443499999997c0.6433809374999999 0 1.164939475 -0.52160325 1.164939475 -1.16495225 0 -0.643412875 -0.5215585374999999 -1.16495225 -1.164939475 -1.16495225 -0.6433745499999999 0 -1.164939475 0.5215393749999999 -1.164939475 1.16495225 0 0.643349 0.521564925 1.16495225 1.164939475 1.16495225Z" stroke-width="0.67"></path>
  <path fill="#fff9bf" d="M2.1258685875 12.033539c-0.308963375 0 -0.6052667249999999 0.12276775 -0.8237319999999999 0.34122024999999995 -0.21847166249999997 0.2184525 -0.3412074749999999 0.5147047499999999 -0.3412074749999999 0.8237319999999999 0 0.308963375 0.12273581249999997 0.6052156249999999 0.3412074749999999 0.8237319999999999 0.21846527499999996 0.2184525 0.5147686249999999 0.34122024999999995 0.8237319999999999 0.34122024999999995v-2.3299045Z" stroke-width="0.67"></path>
  <path stroke="#191919" stroke-linecap="round" stroke-linejoin="round" d="M10.571504124999999 7.373793875H12.034049999999999" stroke-width="0.67"></path>
  <path fill="#ffef5e" d="M13.198874499999997 8.538746125c0.643412875 0 1.16495225 -0.5215393749999999 1.16495225 -1.1648883749999999 0 -0.643412875 -0.5215393749999999 -1.16495225 -1.16495225 -1.16495225s-1.16495225 0.5215393749999999 -1.16495225 1.16495225c0 0.643349 0.5215393749999999 1.1648883749999999 1.16495225 1.1648883749999999Z" stroke-width="0.67"></path>
  <path fill="#fff9bf" d="M13.198874499999997 8.538746125c-0.308963375 0 -0.6052795 -0.12270387499999998 -0.8237319999999999 -0.34115637499999996 -0.2184525 -0.2184525 -0.34122024999999995 -0.5148325 -0.34122024999999995 -0.8237319999999999 0 -0.308963375 0.12276775 -0.6052795 0.34122024999999995 -0.8237319999999999 0.2184525 -0.2184844375 0.5147686249999999 -0.34122024999999995 0.8237319999999999 -0.34122024999999995v2.3298406249999997Z" stroke-width="0.67"></path>
  <path stroke="#191919" stroke-linecap="round" stroke-linejoin="round" d="M4.74675565 7.373793875h-1.4497708749999998" stroke-width="0.67"></path>
  <path fill="#ffef5e" d="M2.1321091749999996 8.538746125c0.6433745499999999 0 1.1649330875 -0.5215393749999999 1.1649330875 -1.1648883749999999 0 -0.643412875 -0.5215585374999999 -1.16495225 -1.1649330875 -1.16495225s-1.164939475 0.5215393749999999 -1.164939475 1.16495225c0 0.643349 0.521564925 1.1648883749999999 1.164939475 1.1648883749999999Z" stroke-width="0.67"></path>
  <path fill="#fff9bf" d="M2.1321091749999996 6.208905499999999c-0.308963375 0 -0.6052731124999999 0.12273581249999997 -0.8237319999999999 0.34122024999999995 -0.21847166249999997 0.2184525 -0.3412074749999999 0.5147686249999999 -0.3412074749999999 0.8237319999999999 0 0.30889949999999994 0.12273581249999997 0.6052795 0.3412074749999999 0.8237319999999999 0.21845888749999998 0.2184525 0.5147686249999999 0.34115637499999996 0.8237319999999999 0.34115637499999996V6.208905499999999Z" stroke-width="0.67"></path>
  <path stroke="#191919" stroke-linecap="round" stroke-linejoin="round" d="M13.198874499999997 3.2965376499999994c0.643412875 0 1.16495225 -0.5215585374999999 1.16495225 -1.164939475 0 -0.6433745499999999 -0.5215393749999999 -1.1649330875 -1.16495225 -1.1649330875s-1.16495225 0.5215585374999999 -1.16495225 1.1649330875c0 0.6433809374999999 0.5215393749999999 1.164939475 1.16495225 1.164939475Z" stroke-width="0.67"></path>
  <path stroke="#191919" stroke-linecap="round" stroke-linejoin="round" d="M13.204176124999998 14.363443499999997c0.643412875 0 1.16495225 -0.52160325 1.16495225 -1.16495225 0 -0.643412875 -0.5215393749999999 -1.16495225 -1.16495225 -1.16495225 -0.643349 0 -1.16495225 0.5215393749999999 -1.16495225 1.16495225 0 0.643349 0.52160325 1.16495225 1.16495225 1.16495225Z" stroke-width="0.67"></path>
  <path stroke="#191919" stroke-linecap="round" stroke-linejoin="round" d="M2.1321091749999996 3.2965376499999994c0.6433745499999999 0 1.1649330875 -0.5215585374999999 1.1649330875 -1.164939475 0 -0.6433745499999999 -0.5215585374999999 -1.1649330875 -1.1649330875 -1.1649330875s-1.164939475 0.5215585374999999 -1.164939475 1.1649330875c0 0.6433809374999999 0.521564925 1.164939475 1.164939475 1.164939475Z" stroke-width="0.67"></path>
  <path stroke="#191919" stroke-linecap="round" stroke-linejoin="round" d="M2.1258685875 14.363443499999997c0.6433809374999999 0 1.164939475 -0.52160325 1.164939475 -1.16495225 0 -0.643412875 -0.5215585374999999 -1.16495225 -1.164939475 -1.16495225 -0.6433745499999999 0 -1.164939475 0.5215393749999999 -1.164939475 1.16495225 0 0.643349 0.521564925 1.16495225 1.164939475 1.16495225Z" stroke-width="0.67"></path>
  <path stroke="#191919" stroke-linecap="round" stroke-linejoin="round" d="M13.198874499999997 8.538746125c0.643412875 0 1.16495225 -0.5215393749999999 1.16495225 -1.1648883749999999 0 -0.643412875 -0.5215393749999999 -1.16495225 -1.16495225 -1.16495225s-1.16495225 0.5215393749999999 -1.16495225 1.16495225c0 0.643349 0.5215393749999999 1.1648883749999999 1.16495225 1.1648883749999999Z" stroke-width="0.67"></path>
  <path stroke="#191919" stroke-linecap="round" stroke-linejoin="round" d="M2.1321091749999996 8.538746125c0.6433745499999999 0 1.1649330875 -0.5215393749999999 1.1649330875 -1.1648883749999999 0 -0.643412875 -0.5215585374999999 -1.16495225 -1.1649330875 -1.16495225s-1.164939475 0.5215393749999999 -1.164939475 1.16495225c0 0.643349 0.521564925 1.1648883749999999 1.164939475 1.1648883749999999Z" stroke-width="0.67"></path>
  <path stroke="#191919" stroke-linecap="round" stroke-linejoin="round" d="M5.9234098 6.500111624999999c0.00015329999999999999 -0.31499956249999994 0.085451975 -0.6241098499999999 0.24687687499999997 -0.8946076999999999 0.16142489999999998 -0.27049785 0.39293344999999996 -0.49233572499999995 0.67015095 -0.6420331749999999 0.27715362499999996 -0.14969106249999997 0.58956625 -0.22169096249999998 0.9042783749999999 -0.20835386249999996 0.314776 0.013330712499999998 0.620034625 0.11148742499999999 0.8835189999999999 0.28408406249999996 0.26354825 0.172603025 0.4754854999999999 0.41322015 0.6134554999999999 0.6964035749999999 0.13796999999999998 0.283183425 0.19686274999999998 0.5983937749999999 0.17035462499999998 0.9123138499999999 -0.026508124999999997 0.31388174999999996 -0.13733125 0.6147968749999999 -0.3208441249999999 0.8708078749999999 -0.18344899999999997 0.256074875 -0.43268924999999997 0.45779212499999994 -0.7214042499999999 0.5837536249999999 -0.20772149999999998 0.09063862499999999 -0.38452749999999997 0.23997837499999997 -0.5087004999999999 0.42962324999999996 -0.12410912499999999 0.189644875 -0.19028362499999998 0.41135499999999997 -0.19028362499999998 0.638047375v0.24227787499999998" stroke-width="0.67"></path>
  <path stroke="#191919" d="M7.665127749999999 10.881808874999999c-0.08086574999999999 0 -0.14640149999999996 -0.06553574999999999 -0.14640149999999996 -0.14640149999999996s0.06553574999999999 -0.14633762499999997 0.14640149999999996 -0.14633762499999997" stroke-width="0.67"></path>
  <path stroke="#191919" d="M7.664999999999999 10.881808874999999c0.08086574999999999 0 0.14640149999999996 -0.06553574999999999 0.14640149999999996 -0.14640149999999996s-0.06553574999999999 -0.14633762499999997 -0.14640149999999996 -0.14633762499999997" stroke-width="0.67"></path>
</svg>