<svg xmlns="http://www.w3.org/2000/svg" fill="none" viewBox="-0.335 -0.335 16 16" id="Laptop-Download--Streamline-Ultimate" height="16" width="16">
  <desc>
    Laptop Download Streamline Icon: https://streamlinehq.com
  </desc>
  <path fill="#66e1ff" d="M11.534483624999998 5.5263755749999985c0.13375425 0 0.266167125 0.026342049999999995 0.38976524999999995 0.07752508749999999 0.12359812499999999 0.051189425 0.23582649999999997 0.12621061249999999 0.33042537499999997 0.22079032499999998 0.094598875 0.09457332499999999 0.16958812499999998 0.20685279999999998 0.22081587499999997 0.33042537499999997 0.051163875 0.12357257499999998 0.07748037499999999 0.25601738749999997 0.07748037499999999 0.3897716375v7.535269875H2.7772211249999996V6.544887999999999c0 -0.27012737499999995 0.10730999999999999 -0.5291916 0.2983154125 -0.7201970124999999 0.19101179999999995 -0.19101179999999995 0.4500696374999999 -0.2983154125 0.7201970124999999 -0.2983154125H11.534483624999998Z" stroke-width="0.67"></path>
  <path fill="#c2f3ff" d="M11.961551875 5.620469837499999c-0.133945875 -0.06236116249999999 -0.279964125 -0.09448389999999998 -0.42770699999999995 -0.09409426249999998H3.79573355c-0.27012737499999995 0 -0.5291852125 0.10730999999999999 -0.7201970124999999 0.2983154125 -0.1910054125 0.19101179999999995 -0.2983154125 0.4500696374999999 -0.2983154125 0.7201970124999999v7.535269875h0.7246299374999999L11.961551875 5.620469837499999Z" stroke-width="0.67"></path>
  <path stroke="#191919" stroke-linecap="round" stroke-linejoin="round" d="M7.6664052499999995 9.498020874999998V0.6387499999999999" stroke-width="0.67"></path>
  <path stroke="#191919" stroke-linecap="round" stroke-linejoin="round" d="m5.222356124999999 7.054035624999999 2.4439213749999995 2.4439213749999995 2.44398525 -2.4439213749999995" stroke-width="0.67"></path>
  <path stroke="#191919" stroke-linecap="round" stroke-linejoin="round" d="M12.552970499999999 12.247200874999999v-5.702312875c0 -0.13375425 -0.026316499999999996 -0.26619906249999997 -0.07754424999999998 -0.3897716375 -0.051163875 -0.12357257499999998 -0.126153125 -0.23585204999999998 -0.22075199999999998 -0.33042537499999997 -0.094598875 -0.0945797125 -0.20689112499999998 -0.16960089999999997 -0.33042537499999997 -0.22079032499999998 -0.12359812499999999 -0.0511830375 -0.256011 -0.07752508749999999 -0.38976524999999995 -0.07752508749999999h-2.3419129999999995" stroke-width="0.67"></path>
  <path stroke="#191919" stroke-linecap="round" stroke-linejoin="round" d="M6.1376465499999995 5.5263755749999985h-2.3419129999999995c-0.27012737499999995 0 -0.5291852125 0.10730361249999999 -0.7201970124999999 0.2983154125 -0.1910054125 0.1910054125 -0.2983154125 0.4500696374999999 -0.2983154125 0.7201970124999999v5.702312875" stroke-width="0.67"></path>
  <path fill="#ffffff" stroke="#191919" stroke-linecap="round" stroke-linejoin="round" d="M9.803598874999999 12.24726475c0 0.6720927499999999 -0.9574223749999998 1.221992625 -2.1384711249999997 1.221992625 -1.1810487499999998 0 -2.1384391875 -0.5498998749999999 -2.1384391875 -1.221992625H1.3634310374999998c-0.049937474999999995 0 -0.09910844999999999 0.012263999999999997 -0.14320775 0.035706125 -0.0440993 0.023442125 -0.0817919375 0.057295874999999996 -0.10976918749999999 0.09862299999999999 -0.027977249999999995 0.04139099999999999 -0.0453831875 0.088977875 -0.050703975 0.13860874999999998 -0.005327174999999999 0.04969474999999999 0.0016032624999999998 0.09983662499999998 0.0201845 0.146209875 0.23984423749999997 0.5978061249999999 0.6531665874999999 1.1101474999999998 1.186733625 1.4710412499999999 0.5335670374999999 0.3608298749999999 1.1629529625 0.5537323749999999 1.8070940125 0.5537962499999999H11.255924749999998c0.6441155 -0.000063875 1.2735397499999999 -0.19296637499999997 1.8070876249999999 -0.5537962499999999 0.533547875 -0.3608937499999999 0.9468829999999998 -0.8732351249999999 1.186733625 -1.4710412499999999 0.018715375 -0.04630937499999999 0.025805499999999995 -0.09657899999999998 0.020503874999999994 -0.14627374999999998 -0.00523775 -0.04969474999999999 -0.022611749999999996 -0.09740937499999999 -0.05065287499999999 -0.13880037499999998 -0.027977249999999995 -0.04139099999999999 -0.06572737499999999 -0.07530862499999999 -0.109928875 -0.098686875 -0.04420149999999999 -0.023378249999999996 -0.093449125 -0.03551449999999999 -0.143399375 -0.035386749999999995h-4.162669875Z" stroke-width="0.67"></path>
</svg>