<svg xmlns="http://www.w3.org/2000/svg" fill="none" viewBox="-0.335 -0.335 16 16" id="Harddrive-Download-2--Streamline-Ultimate" height="16" width="16">
  <desc>
    Harddrive Download 2 Streamline Icon: https://streamlinehq.com
  </desc>
  <path stroke="#191919" stroke-linecap="round" stroke-linejoin="round" d="M7.666341374999999 7.970514124999999V0.6387499999999999" stroke-width="0.67"></path>
  <path stroke="#191919" stroke-linecap="round" stroke-linejoin="round" d="m11.02674125 4.609730999999999 -3.3603998749999997 3.3603998749999997 -3.3603934874999997 -3.3603998749999997" stroke-width="0.67"></path>
  <path fill="#e3e3e3" d="M0.9442449624999999 12.247200874999999c0 0.6482034999999999 0.2574865125 1.2698349999999998 0.7158088 1.7281381249999996 0.4583222874999999 0.458303125 1.0799410124999997 0.71578325 1.7281061874999997 0.71578325H11.941878374999998c0.3209079999999999 0 0.6386861249999999 -0.06317237499999999 0.9351938749999998 -0.18600399999999997 0.29650774999999996 -0.12283162499999999 0.5659325 -0.30283137499999996 0.792880375 -0.5297792499999999 0.22694787499999997 -0.22694787499999997 0.406947625 -0.49637262499999996 0.5297792499999999 -0.792880375 0.12283162499999999 -0.29650774999999996 0.18600399999999997 -0.614285875 0.18600399999999997 -0.9352577499999999 0 -0.3209079999999999 -0.06317237499999999 -0.6386861249999999 -0.18600399999999997 -0.9351938749999998 -0.12283162499999999 -0.29650774999999996 -0.30283137499999996 -0.5659325 -0.5297792499999999 -0.792880375 -0.22694787499999997 -0.22694787499999997 -0.49637262499999996 -0.406947625 -0.792880375 -0.5297792499999999 -0.29650774999999996 -0.12283162499999999 -0.614285875 -0.18600399999999997 -0.9351938749999998 -0.18600399999999997H3.3881599499999995c-0.6481651749999999 0 -1.2697838999999997 0.257480125 -1.7281061874999997 0.71578325s-0.7158088 1.079934625 -0.7158088 1.72807425Z" stroke-width="0.67"></path>
  <path fill="#ffffff" d="M14.385735874999998 12.247200874999999c0 -0.6481396249999999 -0.257480125 -1.269771125 -0.71578325 -1.72807425s-1.079934625 -0.71578325 -1.72807425 -0.71578325H3.3881599499999995c-0.6481651749999999 0 -1.2697838999999997 0.257480125 -1.7281061874999997 0.71578325s-0.7158088 1.079934625 -0.7158088 1.72807425H14.385735874999998Z" stroke-width="0.67"></path>
  <path stroke="#191919" stroke-linecap="round" stroke-linejoin="round" d="M0.9442449624999999 12.247200874999999c0 0.6482034999999999 0.2574865125 1.2698349999999998 0.7158088 1.7281381249999996 0.4583222874999999 0.458303125 1.0799410124999997 0.71578325 1.7281061874999997 0.71578325H11.941878374999998c0.3209079999999999 0 0.6386861249999999 -0.06317237499999999 0.9351938749999998 -0.18600399999999997 0.29650774999999996 -0.12283162499999999 0.5659325 -0.30283137499999996 0.792880375 -0.5297792499999999 0.22694787499999997 -0.22694787499999997 0.406947625 -0.49637262499999996 0.5297792499999999 -0.792880375 0.12283162499999999 -0.29650774999999996 0.18600399999999997 -0.614285875 0.18600399999999997 -0.9352577499999999 0 -0.3209079999999999 -0.06317237499999999 -0.6386861249999999 -0.18600399999999997 -0.9351938749999998 -0.12283162499999999 -0.29650774999999996 -0.30283137499999996 -0.5659325 -0.5297792499999999 -0.792880375 -0.22694787499999997 -0.22694787499999997 -0.49637262499999996 -0.406947625 -0.792880375 -0.5297792499999999 -0.29650774999999996 -0.12283162499999999 -0.614285875 -0.18600399999999997 -0.9351938749999998 -0.18600399999999997H3.3881599499999995c-0.6481651749999999 0 -1.2697838999999997 0.257480125 -1.7281061874999997 0.71578325s-0.7158088 1.079934625 -0.7158088 1.72807425Z" stroke-width="0.67"></path>
  <path stroke="#191919" stroke-linecap="round" stroke-linejoin="round" d="M2.7771444749999996 12.24726475h4.276827275" stroke-width="0.67"></path>
  <path fill="#ffef5e" stroke="#191919" stroke-linecap="round" stroke-linejoin="round" d="M9.498020874999998 12.858229124999998c0.16205087499999998 0 0.31745874999999996 -0.064322125 0.43205049999999995 -0.178913875s0.17897775 -0.26999962499999997 0.17897775 -0.43205049999999995 -0.064386 -0.31745874999999996 -0.17897775 -0.43205049999999995c-0.11459174999999999 -0.11452787499999997 -0.26999962499999997 -0.178913875 -0.43205049999999995 -0.178913875s-0.31745874999999996 0.064386 -0.43198662499999996 0.178913875c-0.11459174999999999 0.11459174999999999 -0.17897775 0.26999962499999997 -0.17897775 0.43205049999999995s0.064386 0.31745874999999996 0.17897775 0.43205049999999995c0.11452787499999997 0.11459174999999999 0.26993575 0.178913875 0.43198662499999996 0.178913875Z" stroke-width="0.67"></path>
  <path fill="#ffef5e" stroke="#191919" stroke-linecap="round" stroke-linejoin="round" d="M11.941942249999999 12.858229124999998c0.16205087499999998 0 0.31745874999999996 -0.064322125 0.43198662499999996 -0.178913875 0.11459174999999999 -0.11459174999999999 0.17897775 -0.26999962499999997 0.17897775 -0.43205049999999995s-0.064386 -0.31745874999999996 -0.17897775 -0.43205049999999995c-0.11452787499999997 -0.11452787499999997 -0.26993575 -0.178913875 -0.43198662499999996 -0.178913875 -0.16205087499999998 0 -0.31745874999999996 0.064386 -0.43205049999999995 0.178913875 -0.11459174999999999 0.11459174999999999 -0.178913875 0.26999962499999997 -0.178913875 0.43205049999999995s0.064322125 0.31745874999999996 0.178913875 0.43205049999999995 0.26999962499999997 0.178913875 0.43205049999999995 0.178913875Z" stroke-width="0.67"></path>
</svg>