<svg xmlns="http://www.w3.org/2000/svg" fill="none" viewBox="-0.335 -0.335 16 16" id="Beer-Opener-1--Streamline-Ultimate" height="16" width="16">
  <desc>
    Beer Opener 1 Streamline Icon: https://streamlinehq.com
  </desc>
  <path fill="#ff808c" d="M2.7812069249999998 14.328184499999999c-0.2368485 0.22860862499999998 -0.5540006499999999 0.35501724999999995 -0.8831549124999999 0.352079 -0.3291478749999999 -0.0030659999999999993 -0.643974975 -0.1351595 -0.8766396624999999 -0.3679838749999999 -0.23267746249999996 -0.23288824999999996 -0.36459211249999995 -0.547792 -0.36733873749999996 -0.8769398749999999 -0.0027402375 -0.3291478749999999 0.123904725 -0.6461595 0.35266664999999997 -0.8828802499999999l3.9945828124999996 -3.9946147499999998c0.05829232499999999 -0.058317875 0.12752005 -0.10462724999999999 0.20372292499999997 -0.13618149999999998 0.07620287499999999 -0.031618125 0.15787344999999997 -0.04790624999999999 0.240361625 -0.04790624999999999 0.08249456249999998 0 0.1641651375 0.016288124999999997 0.24036801249999995 0.04790624999999999 0.07620287499999999 0.03155425 0.1454306 0.07786362499999999 0.20372292499999997 0.13618149999999998l0.8875750625 0.8875431249999999c0.058317875 0.058317875 0.10462724999999999 0.12755837499999997 0.13624537499999997 0.20376124999999998 0.03155425 0.07620287499999999 0.04784237499999999 0.15789899999999998 0.04784237499999999 0.240361625 0 0.08246262499999998 -0.016288124999999997 0.16422262499999998 -0.04784237499999999 0.2404255 -0.031618125 0.076139 -0.07792749999999998 0.14531562499999998 -0.13624537499999997 0.20363349999999997l-3.9958666999999997 3.9946147499999998Z" stroke-width="0.67"></path>
  <path fill="#ffbfc5" d="M5.888118862499999 8.55784475c-0.05829232499999999 -0.058317875 -0.12752005 -0.10462724999999999 -0.20371653749999996 -0.13618149999999998 -0.07620287499999999 -0.031618125 -0.157886225 -0.04790624999999999 -0.24036801249999995 -0.04790624999999999 -0.082488175 0 -0.1641651375 0.016288124999999997 -0.24036801249999995 0.04790624999999999 -0.07619648749999999 0.03155425 -0.14542421249999998 0.07786362499999999 -0.20371653749999996 0.13618149999999998l-3.9933308624999992 3.9946147499999998c-0.11662297499999998 0.11657187499999998 -0.20913952499999997 0.25505287499999996 -0.27226079999999997 0.407330875 -0.06312127499999999 0.152341875 -0.09560809999999999 0.31560637499999994 -0.09560809999999999 0.4805316249999999 0 0.16486137499999998 0.032486825 0.32818975 0.09560809999999999 0.4805316249999999 0.06312127499999999 0.152341875 0.15563782499999998 0.290759 0.27226079999999997 0.407330875 0.005652937499999999 0.005621 0.011925462499999998 0.008750875 0.017578399999999997 0.014435749999999997l5.32464555 -5.324683875 -0.46072398749999993 -0.460091625Z" stroke-width="0.67"></path>
  <path stroke="#191919" stroke-linecap="round" stroke-linejoin="round" d="M2.7812069249999998 14.328184499999999c-0.2368485 0.22860862499999998 -0.5540006499999999 0.35501724999999995 -0.8831549124999999 0.352079 -0.3291478749999999 -0.0030659999999999993 -0.643974975 -0.1351595 -0.8766396624999999 -0.3679838749999999 -0.23267746249999996 -0.23288824999999996 -0.36459211249999995 -0.547792 -0.36733873749999996 -0.8769398749999999 -0.0027402375 -0.3291478749999999 0.123904725 -0.6461595 0.35266664999999997 -0.8828802499999999l3.9945828124999996 -3.9946147499999998c0.05829232499999999 -0.058317875 0.12752005 -0.10462724999999999 0.20372292499999997 -0.13618149999999998 0.07620287499999999 -0.031618125 0.15787344999999997 -0.04790624999999999 0.240361625 -0.04790624999999999 0.08249456249999998 0 0.1641651375 0.016288124999999997 0.24036801249999995 0.04790624999999999 0.07620287499999999 0.03155425 0.1454306 0.07786362499999999 0.20372292499999997 0.13618149999999998l0.8875750625 0.8875431249999999c0.058317875 0.058317875 0.10462724999999999 0.12755837499999997 0.13624537499999997 0.20376124999999998 0.03155425 0.07620287499999999 0.04784237499999999 0.15789899999999998 0.04784237499999999 0.240361625 0 0.08246262499999998 -0.016288124999999997 0.16422262499999998 -0.04784237499999999 0.2404255 -0.031618125 0.076139 -0.07792749999999998 0.14531562499999998 -0.13624537499999997 0.20363349999999997l-3.9958666999999997 3.9946147499999998Z" stroke-width="0.67"></path>
  <path stroke="#191919" stroke-linecap="round" stroke-linejoin="round" d="m4.555769399999999 9.001648249999999 1.7757186125 1.7757249999999998" stroke-width="0.67"></path>
  <path stroke="#191919" stroke-linecap="round" stroke-linejoin="round" d="m6.3319862375 9.00471425 2.2188322625 -2.2176122499999997" stroke-width="0.67"></path>
  <path fill="#e3e3e3" d="m14.323202249999998 3.6782099374999997 -2.6676754999999996 -2.661377425c-0.11612474999999998 -0.11638024999999999 -0.25409475 -0.20871156249999998 -0.4059895 -0.2717050875 -0.15183087499999998 -0.062993525 -0.31464824999999996 -0.09542286249999998 -0.47899862499999996 -0.09542286249999998 -0.16441424999999998 0 -0.32723162499999997 0.032429337499999995 -0.47912637499999994 0.09542286249999998 -0.15183087499999998 0.062993525 -0.28980087499999996 0.15532483749999998 -0.4059256249999999 0.2717050875l-1.336967625 1.3306887125c-0.5716812499999999 0.5919168499999999 -0.8880541249999999 1.38468225 -0.8809001249999999 2.2075647124999995 0.007153999999999999 0.82288885 0.33726 1.610046025 0.919097375 2.1919664374999996 0.5819012499999999 0.581837375 1.3690328749999998 0.9118794999999998 2.1919345 0.9190335 0.8229016249999999 0.007153999999999999 1.6156542499999997 -0.30915499999999996 2.207583875 -0.8808362499999999l1.336967625 -1.3306887125c0.11676349999999998 -0.11659103749999998 0.20931837499999997 -0.2550401 0.27249074999999995 -0.40744584999999994 0.06317237499999999 -0.15239936249999997 0.09568474999999999 -0.3157532875 0.09568474999999999 -0.4807296375s-0.032512374999999996 -0.32833666249999993 -0.09568474999999999 -0.4807296375c-0.06317237499999999 -0.15239936249999997 -0.15572724999999998 -0.29085481249999995 -0.27249074999999995 -0.40744584999999994Zm-2.2220196249999997 2.22200685 -0.4456558749999999 0.4456558749999999c-0.05870112499999999 0.05753221249999999 -0.137522875 0.0897252125 -0.21966612499999996 0.0897252125s-0.161028875 -0.032193 -0.21966612499999996 -0.0897252125l-0.48334212499999996 -0.4895954874999999c-0.04509574999999999 -0.04246409999999999 -0.075947375 -0.0978373375 -0.08833912499999999 -0.15851858749999997 -0.012263999999999997 -0.06069402499999999 -0.005557124999999999 -0.12371948749999999 0.01929025 -0.18042771249999998 0.06029799999999999 -0.11778549999999999 0.08182387499999999 -0.25161639999999996 0.06157549999999999 -0.3823812999999999 -0.020248374999999996 -0.1307649 -0.08144062499999999 -0.25177608749999997 -0.17457037499999997 -0.3457362125 -0.09472662499999998 -0.0939026375 -0.21640849999999998 -0.15587416249999997 -0.34811875 -0.17725951249999997 -0.1315825 -0.021378962499999998 -0.26667812499999993 -0.0011050374999999999 -0.38625212499999995 0.057998499999999995 -0.055762874999999996 0.027472637499999997 -0.11880749999999998 0.03621073749999999 -0.179935875 0.024904862499999996 -0.061064499999999994 -0.011312262499999998 -0.116827375 -0.0420616875 -0.15904875 -0.0876684375l-0.48327824999999996 -0.4833229624999999c-0.05748749999999999 -0.0599466875 -0.08955274999999999 -0.13978405 -0.08955274999999999 -0.22282793749999996 0 -0.0830375 0.03206525 -0.16287486249999997 0.08955274999999999 -0.22282793749999996l0.37034724999999996 -0.36405556249999993c0.34268937499999996 -0.3568632375 0.8081465 -0.5702696125 1.30215575 -0.5970651749999999 0.49407312499999995 -0.026801949999999995 0.9799063749999999 0.1350062 1.3591961249999998 0.45270128749999994 0.19162499999999996 0.16981807499999999 0.34626637499999996 0.3772713 0.454279 0.6094505375 0.10794875 0.23217285 0.16703312499999998 0.48409584999999994 0.173420625 0.7400685249999999 0.005876499999999999 0.255538325 -0.03998575 0.5096202999999999 -0.134967875 0.746941475 -0.09491825 0.23732756249999998 -0.23691237499999998 0.45297594999999996 -0.41742312499999995 0.6339657624999999Z" stroke-width="0.67"></path>
  <path fill="#ffffff" d="M11.655271249999998 1.0168325125c-0.11612474999999998 -0.11638024999999999 -0.25409475 -0.20871156249999998 -0.4059895 -0.2717050875 -0.15189475 -0.062993525 -0.314712125 -0.09542286249999998 -0.47906249999999995 -0.09542286249999998 -0.16441424999999998 0 -0.32723162499999997 0.032429337499999995 -0.47906249999999995 0.09542286249999998 -0.15189475 0.062993525 -0.28986474999999995 0.15532483749999998 -0.4059895 0.2717050875l-1.336967625 1.3306887125c-0.575449875 0.5825080625 -0.9000626249999999 1.3670910749999998 -0.9043422499999999 2.1858855375 -0.004343499999999999 0.8187944625 0.31190162499999996 1.6067692374999998 0.8810917499999998 2.1953773625l1.9759731249999999 -1.9753471499999997c-0.09415174999999999 -0.07805524999999999 -0.20874349999999997 -0.1274114625 -0.330169875 -0.14221768749999997 -0.12136249999999998 -0.014799837499999998 -0.24444962499999998 0.0055890625 -0.354634 0.058733062499999995 -0.05569899999999999 0.027472637499999997 -0.11880749999999998 0.03621073749999999 -0.179872 0.024904862499999996 -0.061064499999999994 -0.011312262499999998 -0.11689124999999999 -0.0420616875 -0.15904875 -0.0876684375l-0.48334212499999996 -0.4833229624999999c-0.05748749999999999 -0.0599466875 -0.08955274999999999 -0.13978405 -0.08955274999999999 -0.22282793749999996 0 -0.0830375 0.03206525 -0.16287486249999997 0.08955274999999999 -0.22282793749999996l0.37034724999999996 -0.36405556249999993c0.34268937499999996 -0.3568632375 0.8081465 -0.5702696125 1.30215575 -0.5970651749999999 0.49407312499999995 -0.026801949999999995 0.9799063749999999 0.1350062 1.3591961249999998 0.45270128749999994 0.010667124999999998 0.009415174999999998 0.017565624999999998 0.0213406375 0.028296624999999995 0.030755812499999997l0.8938028749999999 -0.8944480124999998 -1.2923828749999997 -1.2892657749999998Z" stroke-width="0.67"></path>
  <path stroke="#191919" stroke-linecap="round" stroke-linejoin="round" d="m14.323202249999998 3.6782099374999997 -2.6676754999999996 -2.661377425c-0.11612474999999998 -0.11638024999999999 -0.25409475 -0.20871156249999998 -0.4059895 -0.2717050875 -0.15183087499999998 -0.062993525 -0.31464824999999996 -0.09542286249999998 -0.47899862499999996 -0.09542286249999998 -0.16441424999999998 0 -0.32723162499999997 0.032429337499999995 -0.47912637499999994 0.09542286249999998 -0.15183087499999998 0.062993525 -0.28980087499999996 0.15532483749999998 -0.4059256249999999 0.2717050875l-1.336967625 1.3306887125c-0.5716812499999999 0.5919168499999999 -0.8880541249999999 1.38468225 -0.8809001249999999 2.2075647124999995 0.007153999999999999 0.82288885 0.33726 1.610046025 0.919097375 2.1919664374999996 0.5819012499999999 0.581837375 1.3690328749999998 0.9118794999999998 2.1919345 0.9190335 0.8229016249999999 0.007153999999999999 1.6156542499999997 -0.30915499999999996 2.207583875 -0.8808362499999999l1.336967625 -1.3306887125c0.11676349999999998 -0.11659103749999998 0.20931837499999997 -0.2550401 0.27249074999999995 -0.40744584999999994 0.06317237499999999 -0.15239936249999997 0.09568474999999999 -0.3157532875 0.09568474999999999 -0.4807296375s-0.032512374999999996 -0.32833666249999993 -0.09568474999999999 -0.4807296375c-0.06317237499999999 -0.15239936249999997 -0.15572724999999998 -0.29085481249999995 -0.27249074999999995 -0.40744584999999994Zm-2.2220196249999997 2.22200685 -0.4456558749999999 0.4456558749999999c-0.05870112499999999 0.05753221249999999 -0.137522875 0.0897252125 -0.21966612499999996 0.0897252125s-0.161028875 -0.032193 -0.21966612499999996 -0.0897252125l-0.48334212499999996 -0.4895954874999999c-0.04509574999999999 -0.04246409999999999 -0.075947375 -0.0978373375 -0.08833912499999999 -0.15851858749999997 -0.012263999999999997 -0.06069402499999999 -0.005557124999999999 -0.12371948749999999 0.01929025 -0.18042771249999998 0.06029799999999999 -0.11778549999999999 0.08182387499999999 -0.25161639999999996 0.06157549999999999 -0.3823812999999999 -0.020248374999999996 -0.1307649 -0.08144062499999999 -0.25177608749999997 -0.17457037499999997 -0.3457362125 -0.09472662499999998 -0.0939026375 -0.21640849999999998 -0.15587416249999997 -0.34811875 -0.17725951249999997 -0.1315825 -0.021378962499999998 -0.26667812499999993 -0.0011050374999999999 -0.38625212499999995 0.057998499999999995 -0.055762874999999996 0.027472637499999997 -0.11880749999999998 0.03621073749999999 -0.179935875 0.024904862499999996 -0.061064499999999994 -0.011312262499999998 -0.116827375 -0.0420616875 -0.15904875 -0.0876684375l-0.48327824999999996 -0.4833229624999999c-0.05748749999999999 -0.0599466875 -0.08955274999999999 -0.13978405 -0.08955274999999999 -0.22282793749999996 0 -0.0830375 0.03206525 -0.16287486249999997 0.08955274999999999 -0.22282793749999996l0.37034724999999996 -0.36405556249999993c0.34268937499999996 -0.3568632375 0.8081465 -0.5702696125 1.30215575 -0.5970651749999999 0.49407312499999995 -0.026801949999999995 0.9799063749999999 0.1350062 1.3591961249999998 0.45270128749999994 0.19162499999999996 0.16981807499999999 0.34626637499999996 0.3772713 0.454279 0.6094505375 0.10794875 0.23217285 0.16703312499999998 0.48409584999999994 0.173420625 0.7400685249999999 0.005876499999999999 0.255538325 -0.03998575 0.5096202999999999 -0.134967875 0.746941475 -0.09491825 0.23732756249999998 -0.23691237499999998 0.45297594999999996 -0.41742312499999995 0.6339657624999999Z" stroke-width="0.67"></path>
</svg>